{
  "accessors": [
    {
      "bufferView": 2,
      "componentType": 5126,
      "count": 2765,
      "max": [
        2.700850009918213,
        0.6378999948501587,
        4.319550037384033
      ],
      "min": [
        -2.700850009918213,
        -1.9562000036239624,
        -0.005900000222027302
      ],
      "type": "VEC3"
    },
    {
      "bufferView": 2,
      "byteOffset": 33180,
      "componentType": 5126,
      "count": 2765,
      "max": [
        0.9996972680091858,
        0.9999852180480957,
        0.9999476075172424
      ],
      "min": [
        -0.9996972680091858,
        -0.9999964237213135,
        -0.9999049305915833
      ],
      "type": "VEC3"
    },
    {
      "bufferView": 1,
      "componentType": 5126,
      "count": 2765,
      "max": [
        0.998199999332428,
        0.9983000159263611
      ],
      "min": [
        0.002300000051036477,
        0.0017999999690800905
      ],
      "type": "VEC2"
    },
    {
      "bufferView": 0,
      "componentType": 5125,
      "count": 13128,
      "type": "SCALAR"
    },
    {
      "bufferView": 2,
      "byteOffset": 66360,
      "componentType": 5126,
      "count": 159,
      "max": [
        0.2755500078201294,
        -0.2069990038871765,
        4.368450164794922
      ],
      "min": [
        -0.2678999900817871,
        -0.9143990278244019,
        3.9693000316619873
      ],
      "type": "VEC3"
    },
    {
      "bufferView": 2,
      "byteOffset": 68268,
      "componentType": 5126,
      "count": 159,
      "max": [
        0.9948974251747131,
        0.6893042325973511,
        0.9995014071464539
      ],
      "min": [
        -0.9953650236129761,
        -0.9993854761123657,
        -0.07446663081645966
      ],
      "type": "VEC3"
    },
    {
      "bufferView": 1,
      "byteOffset": 22120,
      "componentType": 5126,
      "count": 159,
      "max": [
        0.9922000169754028,
        0.995199978351593
      ],
      "min": [
        -0.028699999675154686,
        -0.014000000432133675
      ],
      "type": "VEC2"
    },
    {
      "bufferView": 0,
      "byteOffset": 52512,
      "componentType": 5125,
      "count": 774,
      "type": "SCALAR"
    }
  ],
  "asset": {
    "extras": {
      "author": "We Are Venom (https://sketchfab.com/Damia021)",
      "license": "CC-BY-4.0 (http://creativecommons.org/licenses/by/4.0/)",
      "source": "https://sketchfab.com/3d-models/the-incredible-hulk-edward-nortons-hulk-5582a491341446ef944f7a32f4c891c1",
      "title": "The Incredible Hulk: Edward Norton's Hulk"
    },
    "generator": "Sketchfab-16.33.0",
    "version": "2.0"
  },
  "bufferViews": [
    {
      "buffer": 0,
      "byteLength": 55608,
      "name": "floatBufferViews",
      "target": 34963
    },
    {
      "buffer": 0,
      "byteLength": 23392,
      "byteOffset": 55608,
      "byteStride": 8,
      "name": "floatBufferViews",
      "target": 34962
    },
    {
      "buffer": 0,
      "byteLength": 70176,
      "byteOffset": 79000,
      "byteStride": 12,
      "name": "floatBufferViews",
      "target": 34962
    }
  ],
  "buffers": [
    {
      "byteLength": 149176,
      "uri": "scene.bin"
    }
  ],
  "images": [
    {
      "uri": "textures/HulkBody_Hulk_body_diff.tga_baseColor.png"
    },
    {
      "uri": "textures/HulkHair_Hulk_hair_diff.tga_baseColor.png"
    }
  ],
  "materials": [
    {
      "doubleSided": true,
      "name": "HulkBody_Hulk_body_diff.tga",
      "pbrMetallicRoughness": {
        "baseColorTexture": {
          "index": 0
        },
        "metallicFactor": 0.0
      }
    },
    {
      "doubleSided": true,
      "name": "HulkHair_Hulk_hair_diff.tga",
      "pbrMetallicRoughness": {
        "baseColorTexture": {
          "index": 1
        },
        "metallicFactor": 0.0
      }
    }
  ],
  "meshes": [
    {
      "name": "Object_0",
      "primitives": [
        {
          "attributes": {
            "NORMAL": 1,
            "POSITION": 0,
            "TEXCOORD_0": 2
          },
          "indices": 3,
          "material": 0,
          "mode": 4
        }
      ]
    },
    {
      "name": "Object_1",
      "primitives": [
        {
          "attributes": {
            "NORMAL": 5,
            "POSITION": 4,
            "TEXCOORD_0": 6
          },
          "indices": 7,
          "material": 1,
          "mode": 4
        }
      ]
    }
  ],
  "nodes": [
    {
      "children": [
        1
      ],
      "matrix": [
        1.0,
        0.0,
        0.0,
        0.0,
        0.0,
        2.220446049250313e-16,
        -1.0,
        0.0,
        0.0,
        1.0,
        2.220446049250313e-16,
        0.0,
        0.0,
        0.0,
        0.0,
        1.0
      ],
      "name": "Sketchfab_model"
    },
    {
      "children": [
        2
      ],
      "name": "root"
    },
    {
      "children": [
        3
      ],
      "matrix": [
        1.0,
        0.0,
        0.0,
        0.0,
        0.0,
        2.220446049250313e-16,
        1.0,
        0.0,
        0.0,
        -1.0,
        2.220446049250313e-16,
        0.0,
        0.0,
        0.0,
        0.0,
        1.0
      ],
      "name": "GLTF_SceneRootNode"
    },
    {
      "children": [
        4
      ],
      "matrix": [
        1.0,
        0.0,
        0.0,
        0.0,
        0.0,
        2.220446049250313e-16,
        -1.0,
        0.0,
        0.0,
        1.0,
        2.220446049250313e-16,
        0.0,
        0.0,
        0.0,
        0.0,
        1.0
      ],
      "name": "Sketchfab_model_0"
    },
    {
      "children": [
        5,
        7
      ],
      "name": "Hulk.obj.cleaner.materialmerger.gles_1"
    },
    {
      "children": [
        6
      ],
      "name": "Object_2_2"
    },
    {
      "mesh": 0,
      "name": "Object_6"
    },
    {
      "children": [
        8
      ],
      "name": "Object_3_3"
    },
    {
      "mesh": 1,
      "name": "Object_8"
    }
  ],
  "samplers": [
    {
      "magFilter": 9729,
      "minFilter": 9987,
      "wrapS": 10497,
      "wrapT": 10497
    }
  ],
  "scene": 0,
  "scenes": [
    {
      "name": "Sketchfab_Scene",
      "nodes": [
        0
      ]
    }
  ],
  "textures": [
    {
      "sampler": 0,
      "source": 0
    },
    {
      "sampler": 0,
      "source": 1
    }
  ]
}
